
<svg xmlns="http://www.w3.org/2000/svg" width="320" height="89.27836382980848" viewBox="0 0 320 89.27836382980848" class="css-1j8o68f"><defs id="SvgjsDefs5065"><linearGradient id="SvgjsLinearGradient5070"><stop id="SvgjsStop5071" stop-color="#00ff8f" offset="0"></stop><stop id="SvgjsStop5072" stop-color="#00a1ff" offset="1"></stop></linearGradient></defs><g id="SvgjsG5066" featurekey="S6ay6y-0" transform="matrix(1.0309279161376887,0,0,1.0309279161376887,-1.5463918742065332,-6.907216841488619)" fill="url(#SvgjsLinearGradient5070)"><path xmlns="http://www.w3.org/2000/svg" d="M72.9,6.7c-9.8,0-18.6,5.6-22.9,14.2C45.7,12.3,36.9,6.7,27.1,6.7C13,6.7,1.5,18.2,1.5,32.3C1.5,38.9,4,45.2,8.6,50  l40.3,42.8c0.3,0.3,0.7,0.5,1.1,0.5s0.8-0.2,1.1-0.5c0,0,40.3-42.7,40.3-42.8c4.6-4.8,7.1-11.1,7.1-17.7C98.5,18.2,87,6.7,72.9,6.7z   M50,89.6c0,0-39-41.5-39.1-41.5c-4.1-4.2-6.4-9.8-6.4-15.7c0-12.5,10.1-22.6,22.6-22.6c9.8,0,18.4,6.3,21.5,15.6  c0.2,0.6,0.8,1,1.4,1s1.2-0.4,1.4-1c3-9.3,11.7-15.6,21.5-15.6c12.5,0,22.6,10.1,22.6,22.6c0,4.4-1.3,8.6-3.6,12.3L71.7,24.4  c-1.4-1.4-3.4-2.2-5.4-2.2c-2.1,0-4,0.8-5.4,2.2c-3,3-3,7.8,0,10.8l1.8,1.8H45.1c-3,0-5.4,2.4-5.4,5.4v0.4c0,0.9,0.2,1.7,0.6,2.4  h-3.4c-3,0-5.4,2.4-5.4,5.4V51c0,3,2.4,5.4,5.4,5.4h3.4c-0.4,0.7-0.6,1.5-0.6,2.4v0.4c0,3,2.4,5.4,5.4,5.4h5  c-0.4,0.7-0.6,1.5-0.6,2.4v0.4c0,3,2.4,5.4,5.4,5.4h10.7L50,89.6z M68.5,69.9H55c-1.3,0-2.4-1.1-2.4-2.4v-0.4c0-1.3,1.1-2.4,2.4-2.4  h11.2c0.8,0,1.5-0.7,1.5-1.5s-0.7-1.5-1.5-1.5h-21c-1.3,0-2.4-1.1-2.4-2.4v-0.4c0-1.3,1.1-2.4,2.4-2.4h21c0.8,0,1.5-0.7,1.5-1.5  s-0.7-1.5-1.5-1.5H36.9c-1.3,0-2.4-1.1-2.4-2.4v-0.4c0-1.3,1.1-2.4,2.4-2.4h29.2c0.8,0,1.5-0.7,1.5-1.5s-0.7-1.5-1.5-1.5h-21  c-1.3,0-2.4-1.1-2.4-2.4v-0.4c0-1.3,1.1-2.4,2.4-2.4h20.5l2.8,2.8c0.6,0.6,1.5,0.6,2.1,0s0.6-1.5,0-2.1L63,33.1  c-1.8-1.8-1.8-4.8,0-6.6c0.9-0.9,2-1.4,3.3-1.4s2.4,0.5,3.3,1.4L90,47C89.7,47.4,68.5,69.9,68.5,69.9z"></path></g><g id="SvgjsG5067" featurekey="j5pGhi-0" transform="matrix(2.7731560391126036,0,0,2.7731560391126036,118.11425370827529,2.246814685252545)" fill="#111111"><path d="M8.14 20.22 c-1 0 -1.98 -0.2 -2.9 -0.58 c-0.88 -0.38 -1.68 -0.92 -2.36 -1.6 c-0.7 -0.68 -1.24 -1.48 -1.6 -2.38 c-0.4 -0.92 -0.6 -1.88 -0.6 -2.9 c0 -4.1 3.36 -7.44 7.46 -7.44 c1.16 0 2.32 0.28 3.34 0.8 c1.02 0.5 1.94 1.28 2.62 2.2 l0.32 0.4 l-2.14 1.58 l-0.3 -0.4 c-0.9 -1.22 -2.3 -1.92 -3.84 -1.92 c-2.64 0 -4.8 2.14 -4.8 4.78 c0 2.66 2.16 4.82 4.8 4.82 c1.52 0 2.92 -0.7 3.84 -1.92 l0.3 -0.38 l2.12 1.56 l-0.32 0.4 c-0.7 0.94 -1.58 1.68 -2.62 2.2 c-1.02 0.52 -2.16 0.78 -3.32 0.78 z M18.86 20 l-2.6 0 l0 -14.68 l2.6 0 l0 14.68 z M25.62 20.22 c-1.24 0 -2.46 -0.5 -3.4 -1.4 c-0.9 -0.94 -1.4 -2.16 -1.4 -3.4 c0 -1.26 0.5 -2.48 1.4 -3.4 c0.92 -0.88 2.12 -1.38 3.4 -1.38 c1.32 0 2.52 0.5 3.38 1.38 c0.92 0.92 1.42 2.12 1.42 3.4 s-0.5 2.48 -1.42 3.4 c-0.9 0.9 -2.1 1.4 -3.38 1.4 z M25.62 12.92 c-1.34 0 -2.44 1.12 -2.44 2.5 s1.1 2.5 2.44 2.5 c1.36 0 2.46 -1.12 2.46 -2.5 s-1.1 -2.5 -2.46 -2.5 z M35.64 20.08 c-0.28 0 -0.58 -0.04 -0.94 -0.1 c-1 -0.2 -1.94 -0.64 -2.68 -1.3 l-0.3 -0.24 l1.5 -1.66 l0.28 0.26 c0.88 0.74 1.6 0.88 2.06 0.88 c0.34 0 0.58 -0.04 0.82 -0.16 c0.3 -0.12 0.44 -0.32 0.44 -0.6 c0 -0.24 -0.14 -0.54 -1.32 -0.74 c-1.08 -0.22 -1.76 -0.44 -2.08 -0.62 c-0.42 -0.24 -0.76 -0.56 -1 -0.96 s-0.36 -0.84 -0.36 -1.34 c0 -0.52 0.16 -1.02 0.48 -1.48 c0.26 -0.38 0.64 -0.68 1.2 -0.96 c0.46 -0.22 0.98 -0.32 1.6 -0.32 c0.22 0 0.44 0.02 0.64 0.04 c0.88 0.14 1.76 0.52 2.48 1.08 l0.3 0.24 l-1.42 1.64 l-0.28 -0.22 c-0.7 -0.56 -1.3 -0.66 -1.66 -0.66 c-0.26 0 -0.5 0.04 -0.72 0.14 c-0.26 0.14 -0.4 0.36 -0.4 0.5 c0 0.28 0.2 0.48 1.24 0.72 c1.36 0.32 1.8 0.48 2.08 0.6 c0.56 0.32 0.8 0.58 1 0.84 c0.3 0.42 0.44 0.94 0.44 1.5 c0 0.58 -0.16 1.1 -0.46 1.52 s-0.7 0.78 -1.28 1.06 c-0.46 0.22 -1.06 0.34 -1.66 0.34 z M44.760000000000005 20.22 l-0.02 0 c-0.58 0 -1.18 -0.14 -1.74 -0.4 c-0.52 -0.22 -1 -0.58 -1.44 -1.04 c-0.7 -0.76 -1.12 -1.76 -1.22 -2.8 c-0.02 -0.18 -0.04 -0.36 -0.04 -0.56 c0 -0.4 0.06 -0.82 0.16 -1.24 c0.18 -0.8 0.56 -1.54 1.1 -2.1 c0.4 -0.44 0.86 -0.78 1.44 -1.06 c0.54 -0.26 1.14 -0.38 1.76 -0.38 c0.64 0 1.22 0.12 1.76 0.38 c0.6 0.28 1.08 0.64 1.44 1.06 c0.52 0.56 0.92 1.28 1.12 2.1 c0.1 0.38 0.14 0.78 0.14 1.24 l0 0.46 l-6.72 0 l0.02 0.14 c0.26 1.24 1.2 2.14 2.24 2.14 l0.02 0 c0.58 -0.04 1.22 -0.4 1.6 -0.72 l0.22 -0.18 l1.66 1.44 l-0.3 0.26 c-0.22 0.2 -0.5 0.44 -0.8 0.6 l-0.02 0 c-0.72 0.42 -1.5 0.64 -2.38 0.66 z M44.760000000000005 12.719999999999999 c-0.78 0 -1.56 0.54 -1.98 1.38 l-0.08 0.16 l4.14 0 l-0.08 -0.16 c-0.46 -0.86 -1.22 -1.38 -2 -1.38 z M57.34 20 l-6.24 0 l0 -14.24 l5.28 0 c0.96 0 1.9 0.4 2.56 1.08 c0.68 0.66 1.08 1.6 1.08 2.56 c0 0.58 -0.14 1.12 -0.36 1.6 c0.38 0.22 0.74 0.48 1.04 0.8 c0.92 0.9 1.42 2.1 1.42 3.38 s-0.5 2.48 -1.42 3.4 c-0.44 0.44 -0.96 0.8 -1.54 1.04 c-0.58 0.26 -1.2 0.38 -1.82 0.38 z M53.760000000000005 17.38 l3.56 0 c1.18 -0.04 2.14 -1.02 2.14 -2.2 c0 -1.16 -0.96 -2.14 -2.12 -2.16 l-3.58 0 l0 4.36 z M53.760000000000005 10.4 l2.6 0 c0.56 0 1 -0.46 1 -1 s-0.44 -0.98 -1 -1.02 l-2.6 0 l0 2.02 z M66.96000000000001 25.32 l-2.62 0 l2.18 -5.3 l-3.66 -9.18 l2.68 0 l2.28 5.7 l2.32 -5.7 l2.66 0 z"></path></g></svg>